<svg width="19" height="15" viewBox="0 0 19 15" fill="none" xmlns="http://www.w3.org/2000/svg">
<path d="M15.5455 15H3.45455C2.53834 15 1.65966 14.6488 1.01181 14.0237C0.363957 13.3986 0 12.5507 0 11.6667V3.33333C0 2.44928 0.363957 1.60143 1.01181 0.976308C1.65966 0.351187 2.53834 0 3.45455 0H15.5455C16.4617 0 17.3403 0.351187 17.9882 0.976308C18.636 1.60143 19 2.44928 19 3.33333V11.6667C19 12.5507 18.636 13.3986 17.9882 14.0237C17.3403 14.6488 16.4617 15 15.5455 15ZM15.5455 11.6667V6.60166L10.3636 10H8.63636L3.45455 6.60667V11.6667H15.5455ZM4.08672 3.33333L9.51898 6.79832L14.9133 3.33333H4.08672Z" fill="black"/>
</svg>
