<svg width="14" height="19" viewBox="0 0 14 19" fill="none" xmlns="http://www.w3.org/2000/svg">
<g clip-path="url(#clip0_30_10)">
<path d="M12.6545 11.5821L12.6778 11.6265L6.99999 19L1.27708 11.5315L1.28952 11.5109C0.448531 10.2762 -0.00186258 8.80952 -0.00152569 7.30713C-0.00152569 5.41746 0.735931 3.6052 2.04869 2.269C3.36144 0.932803 5.14196 0.182129 6.99847 0.182129C8.85499 0.182129 10.6354 0.932803 11.9482 2.269C13.2609 3.6052 13.9985 5.41746 13.9985 7.30713C13.9977 8.83965 13.5279 10.3339 12.6545 11.5821ZM6.99999 3.16672C5.9686 3.16672 4.97945 3.58375 4.25014 4.32608C3.52083 5.06841 3.1111 6.07523 3.1111 7.12505C3.11478 7.79852 3.28946 8.45957 3.6182 9.04405L3.59646 9.07888L6.98907 14.3609L10.1531 9.42564C10.2044 9.3528 10.2511 9.27679 10.2978 9.20079L10.4004 9.04246L10.3896 9.02822C10.7119 8.44843 10.8833 7.79438 10.8874 7.12821C10.8878 6.60826 10.7875 6.09333 10.5924 5.61282C10.3972 5.13231 10.1109 4.69564 9.74994 4.32776C9.38895 3.95988 8.96027 3.668 8.48842 3.46879C8.01658 3.26957 7.51082 3.16692 6.99999 3.16672Z" fill="black"/>
</g>
<defs>
<clipPath id="clip0_30_10">
<rect width="14" height="19" fill="white"/>
</clipPath>
</defs>
</svg>
