<svg width="218" height="98" viewBox="0 0 218 98" fill="none" xmlns="http://www.w3.org/2000/svg">
<path d="M80.6768 85V84.2354L82.1094 84.1211V73.0908L80.6768 72.9766V72.2031H92.9287V72.9766L91.4961 73.0908V84.1211L92.9287 84.2354V85H89.0088V84.2354L90.4414 84.1211V73.0908H83.1641V84.1211L84.5967 84.2354V85H80.6768ZM99.9688 85.1846C99.1602 85.1846 98.4277 85.0293 97.7715 84.7188C97.1152 84.4082 96.5527 83.9658 96.084 83.3916C95.6152 82.8174 95.2549 82.1348 95.0029 81.3438C94.751 80.5469 94.625 79.6621 94.625 78.6895V78.5225C94.625 77.5498 94.748 76.668 94.9941 75.877C95.2461 75.0801 95.6064 74.3945 96.0752 73.8203C96.5439 73.2402 97.1064 72.7949 97.7627 72.4844C98.4189 72.1738 99.1514 72.0186 99.96 72.0186C100.786 72.0186 101.527 72.1738 102.184 72.4844C102.846 72.7949 103.408 73.2402 103.871 73.8203C104.34 74.3945 104.694 75.0801 104.935 75.877C105.181 76.668 105.304 77.5498 105.304 78.5225V78.6895C105.304 79.6621 105.181 80.5469 104.935 81.3438C104.694 82.1348 104.343 82.8174 103.88 83.3916C103.417 83.9658 102.854 84.4082 102.192 84.7188C101.536 85.0293 100.795 85.1846 99.9688 85.1846ZM99.9688 84.2617C100.895 84.2617 101.674 84.0303 102.307 83.5674C102.939 83.1045 103.42 82.457 103.748 81.625C104.082 80.7871 104.249 79.8086 104.249 78.6895V78.5049C104.249 77.3916 104.082 76.4189 103.748 75.5869C103.414 74.7549 102.928 74.1074 102.289 73.6445C101.656 73.1758 100.88 72.9414 99.96 72.9414C99.0752 72.9414 98.3135 73.1758 97.6748 73.6445C97.0361 74.1074 96.5439 74.7578 96.1982 75.5957C95.8584 76.4277 95.6885 77.3975 95.6885 78.5049V78.6895C95.6885 79.8027 95.8584 80.7783 96.1982 81.6162C96.5439 82.4541 97.0361 83.1045 97.6748 83.5674C98.3193 84.0303 99.084 84.2617 99.9688 84.2617ZM113.618 85.1846C112.353 85.1846 111.286 84.9092 110.419 84.3584C109.558 83.8018 108.904 83.0342 108.459 82.0557C108.02 81.0771 107.8 79.9551 107.8 78.6895V78.5225C107.8 77.2451 108.028 76.1201 108.485 75.1475C108.948 74.1689 109.602 73.4043 110.445 72.8535C111.289 72.2969 112.279 72.0186 113.416 72.0186C114.295 72.0186 115.051 72.1416 115.684 72.3877C116.322 72.6338 116.888 72.9707 117.38 73.3984V75.8857H116.483L116.396 73.8467C116.138 73.6533 115.865 73.4893 115.578 73.3545C115.297 73.2197 114.98 73.1172 114.629 73.0469C114.283 72.9707 113.879 72.9326 113.416 72.9326C112.484 72.9326 111.676 73.1699 110.99 73.6445C110.311 74.1133 109.783 74.7666 109.408 75.6045C109.039 76.4365 108.854 77.4033 108.854 78.5049V78.6895C108.854 79.8262 109.042 80.8135 109.417 81.6514C109.798 82.4893 110.343 83.1367 111.052 83.5938C111.767 84.0508 112.625 84.2793 113.627 84.2793C114.166 84.2793 114.685 84.2119 115.183 84.0771C115.687 83.9424 116.111 83.7637 116.457 83.541L116.545 81.6074H117.433V84.1562C116.911 84.4961 116.322 84.7539 115.666 84.9297C115.016 85.0996 114.333 85.1846 113.618 85.1846ZM119.278 85V84.2354L120.711 84.1211V73.0908L119.278 72.9766V72.2031H120.711H121.766H123.198V72.9766L121.766 73.0908V81.8008L121.818 81.8184L129.087 74.1104V73.0908L127.654 72.9766V72.2031H129.087H130.142H131.574V72.9766L130.142 73.0908V84.1211L131.574 84.2354V85H127.654V84.2354L129.087 84.1211V75.499L129.034 75.4814L121.766 83.1982V84.1211L123.198 84.2354V85H119.278ZM133.121 88.1113L133.007 84.1211H133.877C134.193 83.793 134.516 83.3184 134.844 82.6973C135.172 82.0703 135.456 81.2734 135.696 80.3066C135.942 79.334 136.098 78.1621 136.162 76.791L136.338 73.082L134.958 72.9766V72.2031H144.881V72.9766L143.448 73.0908V84.1211H144.828L144.749 88.1025H143.765V85H134.062V88.1113H133.121ZM135.081 84.1211H142.394V73.0908H137.401L137.226 76.791C137.167 77.9219 137.032 78.9619 136.821 79.9111C136.616 80.8545 136.364 81.6836 136.065 82.3984C135.767 83.1133 135.438 83.6875 135.081 84.1211ZM146.779 85V84.2354L148.212 84.1211V73.0908L146.779 72.9766V72.2031H155.973V75.0068H155.076L154.988 73.0732H149.267V77.916H154.426V78.7949H149.267V84.1475H155.261L155.349 82.1963H156.236V85H146.779ZM157.933 85V84.1211H158.258C158.691 84.1211 159.055 84.0244 159.348 83.8311C159.646 83.6318 159.89 83.3008 160.077 82.8379C160.271 82.375 160.42 81.748 160.525 80.957C160.637 80.166 160.722 79.1758 160.78 77.9863L161.062 73.082L159.673 72.9766V72.2031H169.991V72.9766L168.559 73.0908V84.1211L169.991 84.2354V85H166.071V84.2354L167.504 84.1211V73.0908H162.107L161.835 77.9863C161.771 79.2871 161.668 80.3857 161.527 81.2822C161.387 82.1787 161.182 82.8994 160.912 83.4443C160.648 83.9893 160.303 84.3848 159.875 84.6309C159.453 84.877 158.926 85 158.293 85H157.933ZM171.31 85V84.2354L172.742 84.1211V73.0908L171.31 72.9766V72.2031H175.229V72.9766L173.797 73.0908V78.1445H175.546L178.93 73.5742C179.363 72.9883 179.738 72.5986 180.055 72.4053C180.377 72.2061 180.74 72.1064 181.145 72.1064C181.332 72.1064 181.508 72.1328 181.672 72.1855C181.836 72.2383 181.994 72.3145 182.146 72.4141L181.918 73.1963C181.807 73.1553 181.698 73.123 181.593 73.0996C181.487 73.0703 181.379 73.0557 181.268 73.0557C180.975 73.0557 180.726 73.126 180.521 73.2666C180.315 73.4072 180.058 73.6855 179.747 74.1016L176.46 78.4873L181.47 84.1299L182.577 84.2354V85H178.93V84.2354L180.151 84.1738V84.1299L175.616 79.0674H173.797V84.1211L175.229 84.2354V85H171.31ZM183.772 85V84.2354L185.205 84.1211V73.0908L183.772 72.9766V72.2031H185.205H186.26H187.692V72.9766L186.26 73.0908V81.8008L186.312 81.8184L193.581 74.1104V73.0908L192.148 72.9766V72.2031H193.581H194.636H196.068V72.9766L194.636 73.0908V84.1211L196.068 84.2354V85H192.148V84.2354L193.581 84.1211V75.499L193.528 75.4814L186.26 83.1982V84.1211L187.692 84.2354V85H183.772Z" fill="#0B0B0B"/>
<line x1="13.9932" y1="40.5" x2="160.007" y2="40.5" stroke="black"/>
<line x1="45.9932" y1="58.5" x2="192.007" y2="58.5" stroke="black"/>
<path d="M12.8652 31V29.8105L15.0938 29.6328V21.9082C14.1823 22.1725 13.2891 22.373 12.4141 22.5098C11.5482 22.6374 10.623 22.7012 9.63867 22.7012C7.46029 22.7012 5.8151 22.2227 4.70312 21.2656C3.59115 20.3086 3.03516 18.7454 3.03516 16.5762V12.4746L0.806641 12.2969V11.0938H6.9043V12.2969L4.67578 12.4746V16.5762C4.67578 18.2806 5.08138 19.4974 5.89258 20.2266C6.70378 20.9557 7.95247 21.3203 9.63867 21.3203C10.5592 21.3203 11.4661 21.2565 12.3594 21.1289C13.2617 20.9922 14.1732 20.7917 15.0938 20.5273V12.4746L12.8652 12.2969V11.0938H18.9629V12.2969L16.7344 12.4746V29.6328L18.9629 29.8105V31H12.8652ZM21.2461 31V29.8105L22.709 29.7148L29.7773 11.0938H31.3359L38.3496 29.7148L39.8125 29.8105V31H34.9043V29.8105L36.6543 29.6875L35 25.1895H26.0723L24.4043 29.6875L26.1543 29.8105V31H21.2461ZM26.6055 23.7539H34.4668L30.8711 13.9785L30.5977 13.1719H30.5156L30.2285 13.9785L26.6055 23.7539ZM41.959 31V29.8105L44.1875 29.6328V12.4746L41.959 12.2969V11.0938H44.1875H45.8281H48.0566V12.2969L45.8281 12.4746V26.0234L45.9102 26.0508L57.2168 14.0605V12.4746L54.9883 12.2969V11.0938H57.2168H58.8574H61.0859V12.2969L58.8574 12.4746V29.6328L61.0859 29.8105V31H54.9883V29.8105L57.2168 29.6328V16.2207L57.1348 16.1934L45.8281 28.1973V29.6328L48.0566 29.8105V31H41.959ZM51.5293 9.48047C50.2806 9.48047 49.3008 9.1569 48.5898 8.50977C47.8789 7.85352 47.528 7.00586 47.5371 5.9668L47.5645 5.88477H48.8906C48.8906 6.5957 49.1003 7.17448 49.5195 7.62109C49.9479 8.06771 50.6178 8.29102 51.5293 8.29102C52.4043 8.29102 53.056 8.06771 53.4844 7.62109C53.9219 7.16536 54.1406 6.58659 54.1406 5.88477H55.4805L55.5078 5.9668C55.4987 7.00586 55.1387 7.85352 54.4277 8.50977C53.7259 9.1569 52.7598 9.48047 51.5293 9.48047ZM63.3008 31V29.8105L65.5293 29.6328V12.4746L63.3008 12.2969V11.0938H69.3984V12.2969L67.1699 12.4746V20.4453H78.4082V12.4746L76.1797 12.2969V11.0938H78.4082H80.0488H82.2773V12.2969L80.0488 12.4746V29.6328L82.2773 29.8105V31H76.1797V29.8105L78.4082 29.6328V21.8262H67.1699V29.6328L69.3984 29.8105V31H63.3008ZM84.2734 31V29.8105L86.502 29.6328V12.4746L84.2734 12.2969V11.0938H90.3711V12.2969L88.1426 12.4746V19.7754H93.1191C94.5228 19.7754 95.7122 20.0033 96.6875 20.459C97.6628 20.9147 98.4056 21.5618 98.916 22.4004C99.4355 23.2298 99.6953 24.2188 99.6953 25.3672C99.6953 26.5065 99.4355 27.5 98.916 28.3477C98.4056 29.1862 97.6628 29.8379 96.6875 30.3027C95.7122 30.7676 94.5228 31 93.1191 31H84.2734ZM88.1426 29.6328H93.1191C94.7689 29.6328 95.9993 29.2318 96.8105 28.4297C97.6309 27.6185 98.041 26.5885 98.041 25.3398C98.041 24.1367 97.6309 23.1387 96.8105 22.3457C95.9993 21.5436 94.7689 21.1426 93.1191 21.1426H88.1426V29.6328ZM100.598 31V29.8105L102.826 29.6328V12.4746L100.598 12.2969V11.0938H106.695V12.2969L104.467 12.4746V29.6328L106.695 29.8105V31H100.598ZM108.637 31V29.8105L110.865 29.6328V12.4746L108.637 12.2969V11.0938H122.938V15.4551H121.543L121.406 12.4473H112.506V19.9805H120.531V21.3477H112.506V29.6738H121.83L121.967 26.6387H123.348V31H108.637Z" fill="#0B0B0B"/>
</svg>
