<svg width="48" height="48" viewBox="0 0 48 48" fill="none" xmlns="http://www.w3.org/2000/svg">
<path d="M41 8H7C6.447 8 6 8.448 6 9V41C6 42.654 7.346 44 9 44H39C40.654 44 42 42.654 42 41V9C42 8.448 41.553 8 41 8Z" fill="black"/>
<path d="M39 41H9C7.895 41 7 40.105 7 39V7H41V39C41 40.105 40.105 41 39 41Z" fill="white"/>
<path d="M39 42H9C7.346 42 6 40.654 6 39V7C6 6.448 6.448 6 7 6H41C41.552 6 42 6.448 42 7V39C42 40.654 40.654 42 39 42ZM8 8V39C8 39.551 8.449 40 9 40H39C39.551 40 40 39.551 40 39V8H8Z" fill="black"/>
<path d="M35.937 18.041C35.983 17.89 36.005 17.75 35.999 17.625C35.984 17.263 35.735 17 35.149 17H32.531C31.87 17 31.565 17.4 31.387 17.801C31.387 17.801 29.755 21.16 27.874 23.375C27.264 24.016 26.954 24 26.624 24C26.447 24 26 23.786 26 23.199V18.014C26 17.32 25.827 17 25.268 17H20.619C20.212 17 20 17.32 20 17.641C20 18.308 20.898 18.468 21 20.337V23.96C21 24.84 20.847 25 20.517 25C19.627 25 17.875 22 16.702 18.068C16.448 17.294 16.194 17 15.533 17H12.89C12.127 17 12 17.374 12 17.774C12 18.495 12.6 22.393 15.875 26.875C18.25 30.125 21.379 32 24.149 32C25.827 32 25.999 31.573 25.999 30.906V27.934C26 27.133 26.183 27 26.717 27C27.098 27 27.875 27.25 29.375 29C31.105 31.018 31.419 32 32.411 32H35.029C35.637 32 35.986 31.745 36 31.25C36.003 31.124 35.985 30.983 35.944 30.826C35.75 30.25 34.86 28.842 33.75 27.5C33.135 26.757 32.528 26.021 32.249 25.621C32.062 25.36 31.991 25.176 32 25C32.009 24.815 32.105 24.639 32.249 24.393C32.223 24.393 35.607 19.642 35.937 18.041Z" fill="black"/>
</svg>
