<svg width="48" height="48" viewBox="0 0 48 48" fill="none" xmlns="http://www.w3.org/2000/svg">
<path d="M45 23C45 19.675 44.909 16.833 44.729 14.553C44.478 11.367 41.976 8.879 38.779 8.636C34.975 8.346 29.323 8 24 8C18.677 8 13.025 8.346 9.221 8.636C6.024 8.879 3.521 11.367 3.27 14.553C3.091 16.833 3 19.675 3 23C3 23.314 3 24.625 3 25C3 29.009 3.131 32.55 3.39 35.527C3.665 38.681 6.162 41.15 9.328 41.397C12.854 41.672 18.26 42 24 42C29.74 42 35.146 41.672 38.671 41.396C41.838 41.149 44.335 38.681 44.61 35.526C44.869 32.55 45 29.009 45 25C45 24.625 45 23.315 45 23Z" fill="black"/>
<path d="M43.732 14.631C43.521 11.953 41.381 9.836 38.703 9.632C34.956 9.347 29.304 9 24 9C18.696 9 13.044 9.347 9.297 9.633C6.619 9.837 4.479 11.954 4.268 14.632C4.115 16.565 4 19.263 4 23C4 27.66 4.18 31.064 4.386 33.44C4.618 36.1 6.744 38.192 9.406 38.4C12.976 38.678 18.327 39 24 39C29.673 39 35.024 38.678 38.593 38.4C41.255 38.192 43.382 36.101 43.613 33.44C43.82 31.064 44 27.66 44 23C44 19.263 43.885 16.565 43.732 14.631Z" fill="white"/>
<path d="M24 40C18.26 40 12.854 39.672 9.329 39.396C6.163 39.149 3.665 36.681 3.391 33.526C3.131 30.55 3 27.009 3 23C3 19.675 3.091 16.833 3.271 14.553C3.522 11.367 6.024 8.879 9.222 8.636C13.025 8.346 18.677 8 24 8C29.323 8 34.975 8.346 38.779 8.636C41.976 8.879 44.478 11.367 44.729 14.553C44.909 16.833 45 19.675 45 23C45 27.009 44.869 30.55 44.61 33.526C44.335 36.681 41.838 39.149 38.671 39.396C35.146 39.672 29.74 40 24 40ZM24 10C18.74 10 13.143 10.343 9.373 10.63C7.165 10.798 5.437 12.514 5.265 14.71C5.089 16.938 5 19.727 5 23C5 26.951 5.129 30.435 5.382 33.354C5.572 35.529 7.297 37.232 9.484 37.403C12.974 37.675 18.325 38 24 38C29.675 38 35.026 37.675 38.515 37.402C40.703 37.232 42.428 35.528 42.618 33.353C42.871 30.435 43 26.951 43 23C43 19.728 42.911 16.938 42.735 14.71C42.562 12.514 40.835 10.798 38.627 10.63C34.857 10.343 29.26 10 24 10Z" fill="black"/>
<path d="M30.785 25.052L20.841 30.915C20.027 31.394 19 30.808 19 29.863V18.137C19 17.192 20.027 16.606 20.841 17.085L30.785 22.948C31.586 23.421 31.586 24.579 30.785 25.052Z" fill="black"/>
</svg>
