<svg width="38" height="38" viewBox="0 0 38 38" fill="none" xmlns="http://www.w3.org/2000/svg">
<path d="M33.7265 4.5496C33.3563 4.56584 32.996 4.66886 32.6711 4.79897C32.3495 4.92822 30.498 5.71849 27.7638 6.88749C25.0296 8.05649 21.4753 9.57878 17.952 11.0883C10.9055 14.1073 3.9811 17.0777 3.9811 17.0777L4.03157 17.0584C4.03157 17.0584 3.61365 17.1981 3.18993 17.4933C2.97807 17.641 2.75014 17.8315 2.56352 18.1094C2.3769 18.3872 2.24047 18.7809 2.29188 19.1974C2.47248 20.6602 3.98852 21.0751 3.98852 21.0751L3.99446 21.0781L10.7602 23.3937C10.9327 23.9692 12.8123 30.2426 13.2258 31.5712C13.4541 32.3057 13.6679 32.7294 13.8908 33.0184C14.0023 33.1631 14.1193 33.275 14.2485 33.3569C14.2999 33.3894 14.3539 33.4138 14.4074 33.4355H14.4103C14.4169 33.4384 14.4231 33.4387 14.4296 33.4415L14.4118 33.437C14.4242 33.442 14.4365 33.4505 14.4489 33.4548C14.473 33.4633 14.4878 33.463 14.5187 33.4697C15.2935 33.7402 15.9348 33.2381 15.9348 33.2381L15.9615 33.2173L20.1177 29.3624L26.8627 34.6216L26.9474 34.6601C28.128 35.1844 29.1957 34.8919 29.787 34.4108C30.3782 33.9296 30.6108 33.3094 30.6108 33.3094L30.636 33.2441L35.5924 7.41147C35.7192 6.83354 35.7372 6.33398 35.6176 5.88257C35.498 5.43115 35.2074 5.03874 34.8427 4.82124C34.4781 4.60374 34.0966 4.53336 33.7265 4.5496ZM33.7666 6.09483C33.9169 6.08787 34.0283 6.10506 34.0634 6.12601C34.0986 6.14695 34.1143 6.1442 34.1481 6.27147C34.1818 6.39875 34.2 6.66683 34.108 7.0864L34.105 7.0953L29.1769 32.778C29.1652 32.8038 29.0625 33.0414 28.8281 33.2322C28.5889 33.4268 28.3228 33.5787 27.6168 33.2826L20.2409 27.5307L20.0331 27.3674L20.0287 27.3719L17.8229 25.7168L30.2189 11.1328C30.3142 11.021 30.375 10.8841 30.3941 10.7384C30.4131 10.5928 30.3896 10.4448 30.3263 10.3123C30.263 10.1798 30.1627 10.0684 30.0375 9.99171C29.9123 9.91499 29.7675 9.87618 29.6207 9.87999C29.4773 9.88372 29.3378 9.92797 29.2184 10.0076L11.2813 21.9658L4.50508 19.6457C4.50508 19.6457 3.83221 19.2713 3.80001 19.0104C3.79822 18.9959 3.79028 19.009 3.82524 18.9569C3.86021 18.9049 3.9481 18.817 4.05829 18.7402C4.27867 18.5867 4.53032 18.4938 4.53032 18.4938L4.55555 18.4849L4.58079 18.4745C4.58079 18.4745 11.5056 15.5039 18.5517 12.4851C22.0748 10.9757 25.6284 9.45448 28.362 8.28577C31.0948 7.11736 33.0694 6.27635 33.2366 6.20913C33.427 6.13291 33.6162 6.1018 33.7666 6.09483ZM25.5461 14.2826L16.1456 25.3427L16.1411 25.3472C16.1264 25.3648 16.1126 25.3832 16.0995 25.4021C16.0846 25.4227 16.0708 25.444 16.058 25.4659C16.0052 25.5556 15.9713 25.6551 15.9585 25.7583C15.9585 25.7603 15.9585 25.7623 15.9585 25.7643L14.7339 31.2713C14.7136 31.2118 14.6993 31.1901 14.6775 31.1199V31.1184C14.2885 29.8686 12.5152 23.9522 12.2699 23.134L25.5461 14.2826ZM17.2069 27.1551L18.8961 28.4228L16.4142 30.7236L17.2069 27.1551Z" fill="black"/>
</svg>
