<svg width="40" height="40" viewBox="0 0 40 40" fill="none" xmlns="http://www.w3.org/2000/svg">
<path d="M38.261 26.4731C37.39 25.4277 36.4003 24.4907 35.4432 23.5846C35.1029 23.2623 34.751 22.9291 34.4118 22.5978C33.438 21.6457 33.4025 21.2879 34.1735 20.2064C34.707 19.4609 35.2726 18.7144 35.8196 17.9925C36.3157 17.3375 36.8287 16.6602 37.3205 15.9806L37.4214 15.8409C38.3613 14.5405 39.3332 13.1958 39.8505 11.5737C39.9848 11.1457 40.1259 10.5159 39.8034 9.98933C39.4811 9.46315 38.8559 9.30262 38.4137 9.22765C38.1949 9.19054 37.9777 9.18548 37.7761 9.18548L31.6213 9.18107L31.5704 9.18063C30.6398 9.18063 30.0127 9.61917 29.6533 10.5214C29.3102 11.3835 28.9334 12.3016 28.5033 13.1745C27.6475 14.9126 26.5606 16.9146 24.9878 18.5843L24.9213 18.6553C24.7355 18.8549 24.5251 19.081 24.3713 19.081C24.3477 19.081 24.3221 19.0764 24.293 19.0673C23.9672 18.9404 23.7486 18.1517 23.7585 17.7848C23.7586 17.7798 23.7587 17.7747 23.7587 17.7697L23.7544 10.656C23.7544 10.6313 23.7526 10.6069 23.7495 10.5824C23.5929 9.42605 23.2461 8.7062 21.9356 8.44956C21.9009 8.44262 21.8653 8.43921 21.8298 8.43921H15.4301C14.3874 8.43921 13.8129 8.86299 13.2729 9.49728C13.1271 9.66684 12.8236 10.0198 12.974 10.448C13.1266 10.8826 13.622 10.9755 13.7833 11.0057C14.5839 11.1581 15.0352 11.6478 15.1631 12.5035C15.3863 13.9894 15.4137 15.5754 15.2494 17.4948C15.2036 18.0283 15.113 18.4403 14.9637 18.7923C14.929 18.8744 14.806 19.1425 14.6806 19.1426C14.6408 19.1426 14.5255 19.127 14.3155 18.9823C13.8191 18.6422 13.4558 18.1569 13.0324 17.5574C11.5918 15.5215 10.3828 13.2787 9.33573 10.6994C8.94741 9.74986 8.22217 9.21829 7.29269 9.20265C6.27139 9.18713 5.34543 9.17964 4.46231 9.17964C3.49738 9.17964 2.6028 9.18856 1.72926 9.20673C0.981449 9.21994 0.464192 9.44411 0.192021 9.8735C-0.0805903 10.3032 -0.0628639 10.8677 0.24476 11.551C2.70729 17.0256 4.94004 21.0061 7.48449 24.458C9.26736 26.8734 11.0556 28.5453 13.1117 29.7191C15.2778 30.9583 17.7053 31.5608 20.5327 31.5608C20.8532 31.5608 21.1846 31.5529 21.5188 31.5373C23.1617 31.4573 23.7713 30.8626 23.8483 29.2629C23.885 28.4454 23.9744 27.5881 24.3763 26.8569C24.6299 26.3962 24.8664 26.3962 24.9442 26.3962C25.0939 26.3962 25.2795 26.4651 25.4789 26.5943C25.8365 26.8277 26.1432 27.1404 26.3945 27.4136C26.6311 27.6731 26.8651 27.9352 27.0993 28.1975C27.6047 28.7635 28.1272 29.3487 28.6731 29.9037C29.8679 31.1194 31.1842 31.654 32.696 31.538H38.3389C38.3509 31.538 38.363 31.5375 38.375 31.5368C38.9373 31.4996 39.4243 31.1877 39.7111 30.681C40.0664 30.0534 40.0592 29.2526 39.6919 28.5385C39.2752 27.731 38.7346 27.0411 38.261 26.4731Z" fill="black"/>
</svg>
