<svg width="43" height="43" viewBox="0 0 43 43" fill="none" xmlns="http://www.w3.org/2000/svg">
<path fill-rule="evenodd" clip-rule="evenodd" d="M32.9271 10.0834C29.8932 7.04944 25.8619 5.375 21.5682 5.375C12.7184 5.375 5.51148 12.5767 5.51148 21.4265C5.50623 24.2557 6.24634 27.0167 7.65308 29.4523L5.375 37.772L13.8889 35.5359C16.23 36.8167 18.8755 37.4885 21.563 37.4938H21.5682C30.4181 37.4938 37.6198 30.2921 37.625 21.437C37.625 17.1486 35.9558 13.1173 32.9271 10.0834ZM21.5682 34.78H21.563C19.1694 34.78 16.8179 34.1344 14.7708 32.9219L14.2826 32.6332L9.22778 33.9559L10.5768 29.0323L10.2618 28.5284C8.92334 26.4026 8.21997 23.946 8.21997 21.4265C8.21997 14.0726 14.2091 8.08874 21.5735 8.08874C25.1376 8.08874 28.4865 9.47974 31.006 11.9993C33.5255 14.524 34.9113 17.8729 34.9113 21.437C34.9113 28.7961 28.9221 34.78 21.5682 34.78ZM28.8854 24.7859C28.4865 24.5864 26.5128 23.6154 26.1454 23.4841C25.778 23.3477 25.5103 23.2847 25.2426 23.6836C24.9749 24.0878 24.2085 24.9906 23.9723 25.2583C23.7413 25.5208 23.5051 25.5575 23.1062 25.358C22.702 25.1586 21.4108 24.7334 19.8781 23.3634C18.6865 22.3031 17.8782 20.9856 17.6472 20.5867C17.411 20.1825 17.621 19.9673 17.8204 19.7678C18.0042 19.5894 18.2246 19.3007 18.4241 19.0645C18.6235 18.8335 18.6918 18.6655 18.8282 18.3978C18.9595 18.1301 18.8912 17.8939 18.7915 17.6945C18.6918 17.495 17.8887 15.5161 17.5527 14.713C17.2273 13.9309 16.8966 14.0411 16.6499 14.0254C16.4189 14.0149 16.1512 14.0149 15.8835 14.0149C15.6158 14.0149 15.1802 14.1146 14.8127 14.5188C14.4453 14.9177 13.4113 15.8888 13.4113 17.8624C13.4113 19.8361 14.8495 21.7467 15.049 22.0144C15.2484 22.2769 17.8782 26.3291 21.9042 28.0665C22.8595 28.4812 23.6049 28.7279 24.1875 28.9116C25.1481 29.2161 26.0247 29.1741 26.7175 29.0743C27.4891 28.9589 29.0901 28.1033 29.426 27.1637C29.7567 26.2294 29.7567 25.4263 29.657 25.2583C29.5573 25.0903 29.2896 24.9906 28.8854 24.7859Z" fill="black"/>
</svg>
